<?xml version="1.0" encoding="UTF-8"?>
<svg version="1.1" xmlns="http://www.w3.org/2000/svg" width="374" height="92">
<path d="M0 0 C5 0 5 0 6.41870117 1.30664062 C6.78970947 1.91701172 7.16071777 2.52738281 7.54296875 3.15625 C8.18721802 4.18480103 8.18721802 4.18480103 8.84448242 5.23413086 C9.28767822 5.98186768 9.73087402 6.72960449 10.1875 7.5 C10.65583252 8.25869385 11.12416504 9.0173877 11.60668945 9.79907227 C12.58719396 11.38928845 13.56062337 12.98388627 14.52734375 14.58251953 C15.96852867 16.94833735 17.44480152 19.28750179 18.9375 21.62109375 C19.85439005 23.05975349 20.77106544 24.49855007 21.6875 25.9375 C22.12151123 26.61683594 22.55552246 27.29617187 23.00268555 27.99609375 C26 32.77124806 26 32.77124806 26 35 C28.46103153 32.72659708 30.14862623 30.3558117 31.890625 27.5 C32.70273437 26.17585083 32.70273437 26.17585083 33.53125 24.82495117 C34.0984375 23.89271729 34.665625 22.9604834 35.25 22 C35.83265625 21.05552002 36.4153125 20.11104004 37.015625 19.13793945 C39.462594 15.17083192 41.89879902 11.20184211 44.234375 7.16796875 C44.81703125 6.18441406 45.3996875 5.20085938 46 4.1875 C46.474375 3.35605469 46.94875 2.52460937 47.4375 1.66796875 C48.2109375 0.84232422 48.2109375 0.84232422 49 0 C50.65 0 52.3 0 54 0 C54 18.81 54 37.62 54 57 C52.35 57 50.7 57 49 57 C48.67 42.48 48.34 27.96 48 13 C46.164375 16.09375 44.32875 19.1875 42.4375 22.375 C38.21482863 29.45187912 33.93741129 36.39360461 29 43 C26.74487305 42.85498047 26.74487305 42.85498047 24 42 C21.99536133 39.54736328 21.99536133 39.54736328 20.08203125 36.3203125 C19.5670533 35.4674617 19.5670533 35.4674617 19.04167175 34.59738159 C17.94996058 32.78191227 16.88107583 30.95416314 15.8125 29.125 C15.08287217 27.90145283 14.35176745 26.67878507 13.61914062 25.45703125 C12.27547237 23.21371251 10.94274746 20.96518702 9.61645508 18.71142578 C8.4625688 16.77590834 7.24994539 14.87491809 6 13 C5.67 27.52 5.34 42.04 5 57 C3.35 57 1.7 57 0 57 C0 38.19 0 19.38 0 0 Z " fill="#313435" transform="translate(243,1)"/>
<path d="M0 0 C1.65 0 3.3 0 5 0 C5 8.58 5 17.16 5 26 C25.46 26 45.92 26 67 26 C67 27.65 67 29.3 67 31 C58.75 31 50.5 31 42 31 C42 37.93 42 44.86 42 52 C52.23 52 62.46 52 73 52 C73 53.65 73 55.3 73 57 C60.79 57 48.58 57 36 57 C36 48.42 36 39.84 36 31 C25.77 31 15.54 31 5 31 C5 39.58 5 48.16 5 57 C3.35 57 1.7 57 0 57 C0 38.19 0 19.38 0 0 Z " fill="#313435" transform="translate(159,1)"/>
<path d="M0 0 C5.08011459 3.68447871 8.98170792 6.93455678 11 13 C8.3125 13.875 8.3125 13.875 5 14 C3.74896465 12.58435474 2.5078341 11.15443657 1.3828125 9.63671875 C-1.96902332 5.66943285 -6.06379748 4.23718481 -11.125 3.6171875 C-17.88834921 3.38234899 -23.52429594 3.78292934 -29 8 C-34.0793847 12.75378312 -36.25285478 17.95028888 -36.96484375 24.82421875 C-37.07455562 31.61416429 -34.89225972 37.52979715 -31 43 C-26.18194527 47.62189983 -20.67093447 49.92715892 -13.99609375 50.03125 C-8.13222283 49.57223858 -2.32486496 47.6545934 1.625 43.14453125 C2.12 42.49871094 2.615 41.85289063 3.125 41.1875 C4.546875 39.3515625 4.546875 39.3515625 6 38 C9.375 38.0625 9.375 38.0625 12 39 C8.6153264 46.66005078 3.3296287 51.21132513 -4 55 C-11.92521941 57.6417398 -21.29200725 56.78920931 -28.78125 53.32421875 C-35.8270104 49.11909062 -40.1470181 42.90715705 -42.58203125 35.14453125 C-44.29391281 26.36113894 -43.49962694 17.76484294 -39 10 C-30.34762984 -2.63903186 -13.93449381 -7.44817191 0 0 Z " fill="#313435" transform="translate(139,3)"/>
<path d="M0 0 C1.65 0 3.3 0 5 0 C10.01204061 9.69163012 14.51143318 19.52837732 18.77197266 29.5703125 C19.75860625 31.89528034 20.75183767 34.21734546 21.74609375 36.5390625 C22.38840183 38.04410829 23.0303423 39.54931104 23.671875 41.0546875 C24.10787018 42.07524734 24.10787018 42.07524734 24.55267334 43.11642456 C26.49518781 47.70115068 28.2771231 52.32817771 30 57 C27.69 57 25.38 57 23 57 C16.4 41.49 9.8 25.98 3 10 C-2.42785902 21.54419644 -2.42785902 21.54419644 -7.4921875 33.2109375 C-7.90659592 34.20765976 -7.90659592 34.20765976 -8.32937622 35.22451782 C-9.18099762 37.27341854 -10.0284606 39.32399498 -10.875 41.375 C-11.74328784 43.47585181 -12.61256207 45.57626944 -13.4848938 47.67544556 C-14.26053647 49.54217951 -15.03248009 51.4104492 -15.80419922 53.27880859 C-17 56 -17 56 -18 57 C-19.99958364 57.04080783 -22.00045254 57.04254356 -24 57 C-21.87776637 50.17549682 -19.24004973 43.66860332 -16.3671875 37.12890625 C-15.92988312 36.12536606 -15.49257874 35.12182587 -15.04202271 34.08787537 C-13.65662763 30.91115881 -12.26583654 27.73683733 -10.875 24.5625 C-9.9332509 22.40444646 -8.9918413 20.24624473 -8.05078125 18.08789062 C-6.3364664 14.16001462 -4.62153704 10.2324145 -2.90185547 6.30688477 C-2.55782684 5.52128677 -2.21379822 4.73568878 -1.85934448 3.92628479 C-1.2693722 2.60381788 -0.64760884 1.29521767 0 0 Z " fill="#313435" transform="translate(24,1)"/>
<path d="M0 0 C1.65 0 3.3 0 5 0 C19.66181519 33.1203299 19.66181519 33.1203299 25.4375 46.5 C25.8080249 47.35166748 26.1785498 48.20333496 26.56030273 49.08081055 C29 54.76389112 29 54.76389112 29 57 C27.02 57 25.04 57 23 57 C18.07119679 46.65903121 13.4951412 36.21302643 9.125 25.625 C8.25671216 23.52414819 7.38743793 21.42373056 6.5151062 19.32455444 C5.73946353 17.45782049 4.96751991 15.5895508 4.19580078 13.72119141 C3.25546879 11.13450764 3.25546879 11.13450764 2 10 C-4.6 25.51 -11.2 41.02 -18 57 C-20.31 57 -22.62 57 -25 57 C-20.54236174 45.50191543 -15.81955238 34.14551838 -10.8125 22.875 C-10.06468262 21.188302 -10.06468262 21.188302 -9.30175781 19.4675293 C-6.36238869 12.89203361 -3.28593319 6.40950899 0 0 Z " fill="#313435" transform="translate(345,1)"/>
<path d="M0 0 C1.98 0 3.96 0 6 0 C6 17.16 6 34.32 6 52 C15.9 52 25.8 52 36 52 C36 53.65 36 55.3 36 57 C24.12 57 12.24 57 0 57 C0 38.19 0 19.38 0 0 Z " fill="#313435" transform="translate(60,1)"/>
<path d="M0 0 C1.98 0 3.96 0 6 0 C6 18.81 6 37.62 6 57 C4.02 57 2.04 57 0 57 C0 38.19 0 19.38 0 0 Z " fill="#313435" transform="translate(308,1)"/>
<path d="M0 0 C12.21 0 24.42 0 37 0 C37 1.98 37 3.96 37 6 C26.77 6 16.54 6 6 6 C6 10.29 6 14.58 6 19 C4.02 19 2.04 19 0 19 C0 12.73 0 6.46 0 0 Z " fill="#313435" transform="translate(195,1)"/>
<path d="M0 0 C2.09765625 0.3828125 2.09765625 0.3828125 4.16015625 2.0078125 C5.37418198 5.08334436 5.57607796 7.10220649 5.09765625 10.3828125 C3.53515625 12.7578125 3.53515625 12.7578125 1.09765625 14.3828125 C-2.87721992 14.95065195 -4.96723596 15.00621769 -8.33984375 12.7578125 C-10.36166688 9.68464135 -10.42989892 8.00033369 -9.90234375 4.3828125 C-8.01103305 -0.40850795 -4.62823759 -0.22576769 0 0 Z M-5.77734375 3.5078125 C-7.13102766 5.38481621 -7.13102766 5.38481621 -6.83984375 7.9453125 C-6.12329157 10.52942274 -6.12329157 10.52942274 -3.83984375 11.6953125 C-3.20046875 11.9221875 -2.56109375 12.1490625 -1.90234375 12.3828125 C-0.58234375 11.3928125 0.73765625 10.4028125 2.09765625 9.3828125 C1.76765625 7.4028125 1.43765625 5.4228125 1.09765625 3.3828125 C-2.45201019 2.24840981 -2.45201019 2.24840981 -5.77734375 3.5078125 Z " fill="#7E8386" transform="translate(290.90234375,77.6171875)"/>
<path d="M0 0 C4 1 4 1 6.25 4.0625 C7.11625 5.5165625 7.11625 5.5165625 8 7 C8.33 4.69 8.66 2.38 9 0 C9.99 0 10.98 0 12 0 C12 4.62 12 9.24 12 14 C6.85139294 12.71284823 6.13538553 11.09341999 3 7 C2.67 9.31 2.34 11.62 2 14 C1.34 14 0.68 14 0 14 C0 9.38 0 4.76 0 0 Z " fill="#7E8386" transform="translate(118,78)"/>
<path d="M0 0 C1.588125 -0.061875 3.17625 -0.12375 4.8125 -0.1875 C6.15248047 -0.23970703 6.15248047 -0.23970703 7.51953125 -0.29296875 C10 0 10 0 11.796875 1.26171875 C13.91165827 4.31716861 13.6377042 7.44072072 13 11 C11.5625 13 11.5625 13 9 14 C5.95220739 14.22556813 3.06615099 14.13527137 0 14 C0 9.38 0 4.76 0 0 Z M2 2 C2 4.97 2 7.94 2 11 C4.33294775 11.04241723 6.66702567 11.04092937 9 11 C10.32745166 9.88741409 10.32745166 9.88741409 10.25 7.0625 C10.1675 6.051875 10.085 5.04125 10 4 C6.77208445 1.8480563 5.71599191 1.79913557 2 2 Z " fill="#7E8386" transform="translate(249,78)"/>
<path d="M0 0 C1.828125 0.1953125 1.828125 0.1953125 4 1 C5.484375 3.1796875 5.484375 3.1796875 6.75 5.875 C7.39195313 7.20144531 7.39195313 7.20144531 8.046875 8.5546875 C9 11 9 11 9 14 C8.01 14 7.02 14 6 14 C5.67 13.34 5.34 12.68 5 12 C2.67843403 11.59270772 0.3431213 11.25561323 -2 11 C-2.33 11.99 -2.66 12.98 -3 14 C-3.99 14 -4.98 14 -6 14 C-4.50829734 9.0276578 -2.39542583 4.58154261 0 0 Z M1 4 C0.67 5.32 0.34 6.64 0 8 C0.99 8 1.98 8 3 8 C2.34 6.68 1.68 5.36 1 4 Z " fill="#7E8386" transform="translate(101,78)"/>
<path d="M0 0 C7.51953125 -0.390625 7.51953125 -0.390625 10 0 C12.35964862 2.40068599 12.94726038 3.63835686 13.4375 7 C13 10 13 10 11.5625 12.375 C7.67632781 14.83940188 4.54866791 14.2675687 0 14 C0 9.38 0 4.76 0 0 Z M2 2 C2 4.97 2 7.94 2 11 C4.33294775 11.04241723 6.66702567 11.04092937 9 11 C10.32745166 9.88741409 10.32745166 9.88741409 10.25 7.0625 C10.1675 6.051875 10.085 5.04125 10 4 C6.77208445 1.8480563 5.71599191 1.79913557 2 2 Z " fill="#7E8386" transform="translate(76,78)"/>
<path d="M0 0 C2.05078125 0.03255208 4.1015625 0.06510417 6.15234375 0.09765625 C6.48234375 1.41765625 6.81234375 2.73765625 7.15234375 4.09765625 C4.76670298 3.52181193 2.48551591 2.8753803 0.15234375 2.09765625 C2.28014954 4.43824262 4.26796596 5.80465931 7.15234375 7.09765625 C7.19488731 9.09720371 7.19315158 11.09807261 7.15234375 13.09765625 C6.15234375 14.09765625 6.15234375 14.09765625 2.77734375 14.47265625 C1.58109375 14.34890625 0.38484375 14.22515625 -0.84765625 14.09765625 C-2.78515625 11.59765625 -2.78515625 11.59765625 -3.84765625 9.09765625 C-3.27015625 9.26265625 -2.69265625 9.42765625 -2.09765625 9.59765625 C0.41898744 10.24227656 0.41898744 10.24227656 4.15234375 10.09765625 C0.68734375 8.11765625 0.68734375 8.11765625 -2.84765625 6.09765625 C-2.89037725 4.4315372 -2.88829457 2.7638274 -2.84765625 1.09765625 C-1.84765625 0.09765625 -1.84765625 0.09765625 0 0 Z " fill="#7E8386" transform="translate(194.84765625,77.90234375)"/>
<path d="M0 0 C0.99 0 1.98 0 3 0 C3 3.63 3 7.26 3 11 C4.65 10.67 6.3 10.34 8 10 C8.33 6.7 8.66 3.4 9 0 C9.99 0 10.98 0 12 0 C12.05410687 1.77049689 12.09284119 3.54146849 12.125 5.3125 C12.14820313 6.29863281 12.17140625 7.28476563 12.1953125 8.30078125 C12 11 12 11 10 14 C8.125 14.36328125 8.125 14.36328125 6 14.3125 C5.29875 14.30863281 4.5975 14.30476563 3.875 14.30078125 C2 14 2 14 0 12 C-0.1953125 9.1796875 -0.1953125 9.1796875 -0.125 5.875 C-0.10695312 4.77929688 -0.08890625 3.68359375 -0.0703125 2.5546875 C-0.04710937 1.71164063 -0.02390625 0.86859375 0 0 Z " fill="#7E8386" transform="translate(228,78)"/>
<path d="M0 0 C1.9375 0.3359375 1.9375 0.3359375 4.9375 2.3359375 C4.9375 2.9959375 4.9375 3.6559375 4.9375 4.3359375 C2.91927083 4.04296875 0.90104167 3.75 -1.1171875 3.45703125 C-3.14390667 3.1675078 -3.14390667 3.1675078 -5.0625 4.3359375 C-5.0625 6.6459375 -5.0625 8.9559375 -5.0625 11.3359375 C-1.68544375 10.79867855 1.634186 10.22529127 4.9375 9.3359375 C4.5625 11.2734375 4.5625 11.2734375 3.9375 13.3359375 C0.84576248 14.88180626 -1.65679552 14.62953271 -5.0625 14.3359375 C-7.5 12.7109375 -7.5 12.7109375 -9.0625 10.3359375 C-9.54538863 7.02470118 -9.35868989 5.0393885 -8.0625 1.9609375 C-5.36108378 -0.23396318 -3.3927617 -0.06425685 0 0 Z " fill="#7E8386" transform="translate(147.0625,77.6640625)"/>
<path d="M0 0 C3.3 0 6.6 0 10 0 C10 0.66 10 1.32 10 2 C7.36 2 4.72 2 2 2 C2 2.99 2 3.98 2 5 C3.98 5 5.96 5 8 5 C8 5.99 8 6.98 8 8 C6.02 8 4.04 8 2 8 C2 8.99 2 9.98 2 11 C4.64 11 7.28 11 10 11 C10 11.99 10 12.98 10 14 C6.7 14 3.4 14 0 14 C0 9.38 0 4.76 0 0 Z " fill="#7E8386" transform="translate(160,78)"/>
<path d="M0 0 C3.96 0 7.92 0 12 0 C12 0.66 12 1.32 12 2 C10.35 2 8.7 2 7 2 C7 5.96 7 9.92 7 14 C6.01 14 5.02 14 4 14 C4 10.04 4 6.08 4 2 C2.68 2 1.36 2 0 2 C0 1.34 0 0.68 0 0 Z " fill="#7E8386" transform="translate(209,78)"/>
<path d="M0 0 C0.99 0 1.98 0 3 0 C3 4.62 3 9.24 3 14 C2.01 14 1.02 14 0 14 C0 9.38 0 4.76 0 0 Z " fill="#7E8386" transform="translate(270,78)"/>
</svg>
